<?xml version="1.0" encoding="UTF-8"?>
<svg xmlns="http://www.w3.org/2000/svg" xmlns:xlink="http://www.w3.org/1999/xlink" height="50px" viewBox="0 0 298 44" version="1.1">
<g id="surface1">
<path style=" stroke:none;fill-rule:nonzero;fill:rgb(6.27451%,18.431373%,21.176471%);fill-opacity:1;" d="M 57.140625 30.121094 C 58.785156 30.121094 59.730469 30.011719 61.804688 29.570312 L 62.3125 33.074219 C 60.710938 33.511719 58.925781 33.730469 57.132812 33.730469 C 49.148438 33.730469 46.847656 28.734375 46.847656 22.890625 C 46.917969 17.195312 50.34375 12.375 57.09375 12.375 C 58.878906 12.375 60.410156 12.59375 62.273438 13.074219 L 61.578125 16.542969 C 59.605469 16.105469 58.4375 16.035156 57.203125 16.035156 C 52.976562 16.105469 50.894531 19.246094 50.824219 22.898438 C 50.832031 26.5 52.183594 30.121094 57.140625 30.121094 Z M 57.140625 30.121094 "/>
<path style=" stroke:none;fill-rule:nonzero;fill:rgb(6.27451%,18.431373%,21.176471%);fill-opacity:1;" d="M 73.476562 12.382812 C 80.046875 12.421875 82.957031 17.3125 82.957031 23.039062 C 82.957031 28.625 80.445312 33.621094 73.4375 33.660156 C 66.582031 33.589844 63.960938 28.625 63.960938 23.039062 C 63.960938 17.3125 66.910156 12.453125 73.476562 12.382812 Z M 73.476562 30.152344 C 77.675781 30.113281 79.019531 26.71875 79.019531 23.039062 C 78.980469 19.675781 77.5625 15.886719 73.4375 15.886719 C 69.429688 15.925781 67.859375 19.644531 67.859375 23.039062 C 67.859375 26.867188 69.539062 30.152344 73.476562 30.152344 Z M 73.476562 30.152344 "/>
<path style=" stroke:none;fill-rule:nonzero;fill:rgb(6.27451%,18.431373%,21.176471%);fill-opacity:1;" d="M 110.128906 33.292969 L 110.128906 20.15625 C 110.128906 16.832031 108.890625 15.925781 106.808594 15.925781 C 105.386719 15.925781 103.78125 16.730469 102.324219 17.929688 C 102.394531 18.367188 102.433594 19.246094 102.433594 19.496094 L 102.433594 33.292969 L 98.347656 33.292969 L 98.347656 20.007812 C 98.347656 16.683594 97.359375 15.886719 95.285156 15.886719 C 93.972656 15.886719 92.148438 16.761719 90.582031 17.929688 L 90.582031 33.292969 L 86.535156 33.292969 L 86.535156 12.742188 L 90.582031 12.742188 L 90.582031 14.5 C 91.820312 13.511719 93.792969 12.382812 95.945312 12.34375 C 98.785156 12.304688 100.429688 13.292969 101.34375 14.828125 C 103.019531 13.261719 105.503906 12.382812 107.398438 12.34375 C 114.074219 12.234375 114.175781 17.601562 114.175781 19.863281 L 114.175781 33.292969 Z M 110.128906 33.292969 "/>
<path style=" stroke:none;fill-rule:nonzero;fill:rgb(6.27451%,18.431373%,21.176471%);fill-opacity:1;" d="M 142.214844 33.292969 L 142.214844 20.15625 C 142.214844 16.832031 140.976562 15.925781 138.894531 15.925781 C 137.46875 15.925781 135.867188 16.730469 134.410156 17.929688 C 134.480469 18.367188 134.519531 19.246094 134.519531 19.496094 L 134.519531 33.292969 L 130.433594 33.292969 L 130.433594 20.007812 C 130.433594 16.683594 129.445312 15.886719 127.371094 15.886719 C 126.058594 15.886719 124.234375 16.761719 122.667969 17.929688 L 122.667969 33.292969 L 118.621094 33.292969 L 118.621094 12.742188 L 122.667969 12.742188 L 122.667969 14.5 C 123.902344 13.511719 125.875 12.382812 128.03125 12.34375 C 130.871094 12.304688 132.515625 13.292969 133.429688 14.828125 C 135.105469 13.261719 137.585938 12.382812 139.480469 12.34375 C 146.160156 12.234375 146.261719 17.601562 146.261719 19.863281 L 146.261719 33.292969 Z M 142.214844 33.292969 "/>
<path style=" stroke:none;fill-rule:nonzero;fill:rgb(6.27451%,18.431373%,21.176471%);fill-opacity:1;" d="M 165.144531 29.53125 L 165.761719 32.855469 C 163.9375 33.472656 161.425781 33.769531 159.453125 33.769531 C 151.359375 33.769531 149.386719 28.332031 149.386719 22.898438 C 149.386719 17.460938 151.796875 12.421875 158.574219 12.421875 C 162.773438 12.421875 166.269531 15.015625 166.308594 21.621094 L 166.269531 23.773438 L 153.363281 23.773438 C 153.433594 27.785156 155.585938 30.230469 159.632812 30.230469 C 161.246094 30.230469 162.921875 30.042969 165.144531 29.53125 Z M 153.550781 20.625 L 162.558594 20.625 C 162.410156 16.464844 160.335938 15.625 158.402344 15.625 C 155.335938 15.59375 153.917969 17.671875 153.550781 20.625 Z M 153.550781 20.625 "/>
<path style=" stroke:none;fill-rule:nonzero;fill:rgb(6.27451%,18.431373%,21.176471%);fill-opacity:1;" d="M 181.191406 16.503906 C 180.136719 16.246094 179.21875 16.214844 178.570312 16.214844 C 176.058594 16.175781 174.742188 17.421875 173.796875 18.410156 L 173.796875 33.300781 L 169.746094 33.300781 L 169.746094 12.746094 L 173.796875 12.746094 L 173.796875 14.570312 C 174.851562 13.472656 176.457031 12.523438 178.539062 12.484375 C 179.375 12.445312 180.761719 12.597656 181.929688 13.035156 Z M 181.191406 16.503906 "/>
<path style=" stroke:none;fill-rule:nonzero;fill:rgb(6.27451%,18.431373%,21.176471%);fill-opacity:1;" d="M 193.035156 30.121094 C 194.679688 30.121094 195.625 30.011719 197.699219 29.570312 L 198.210938 33.074219 C 196.605469 33.511719 194.820312 33.730469 193.027344 33.730469 C 185.042969 33.730469 182.742188 28.734375 182.742188 22.890625 C 182.8125 17.195312 186.238281 12.375 192.988281 12.375 C 194.773438 12.375 196.308594 12.59375 198.171875 13.074219 L 197.472656 16.542969 C 195.5 16.105469 194.335938 16.035156 193.097656 16.035156 C 188.871094 16.105469 186.789062 19.246094 186.71875 22.898438 C 186.734375 26.5 188.078125 30.121094 193.035156 30.121094 Z M 193.035156 30.121094 "/>
<path style=" stroke:none;fill-rule:nonzero;fill:rgb(6.27451%,18.431373%,21.176471%);fill-opacity:1;" d="M 215.613281 29.53125 L 216.230469 32.855469 C 214.40625 33.472656 211.894531 33.769531 209.921875 33.769531 C 201.828125 33.769531 199.855469 28.332031 199.855469 22.898438 C 199.855469 17.460938 202.265625 12.421875 209.042969 12.421875 C 213.242188 12.421875 216.738281 15.015625 216.777344 21.621094 L 216.738281 23.773438 L 203.832031 23.773438 C 203.902344 27.785156 206.054688 30.230469 210.101562 30.230469 C 211.714844 30.230469 213.390625 30.042969 215.613281 29.53125 Z M 204.019531 20.625 L 213.027344 20.625 C 212.878906 16.464844 210.804688 15.625 208.871094 15.625 C 205.804688 15.59375 204.378906 17.671875 204.019531 20.625 Z M 204.019531 20.625 "/>
<path style=" stroke:none;fill-rule:nonzero;fill:rgb(6.27451%,18.431373%,21.176471%);fill-opacity:1;" d="M 230.488281 16.105469 L 224.90625 16.105469 L 224.90625 26.070312 C 224.90625 28.144531 225.164062 29.609375 227.277344 29.898438 C 228.441406 30.007812 229.648438 29.898438 230.816406 29.75 L 231.074219 33.253906 C 229.867188 33.472656 228.152344 33.511719 227.464844 33.511719 C 222.691406 33.332031 220.898438 30.886719 220.898438 27.046875 L 220.898438 16.105469 L 217.945312 16.105469 L 217.945312 13.292969 L 220.898438 12.964844 L 220.898438 8.183594 L 224.90625 8.183594 L 224.90625 12.742188 L 230.488281 12.742188 Z M 230.488281 16.105469 "/>
<path style=" stroke:none;fill-rule:nonzero;fill:rgb(6.27451%,18.431373%,21.176471%);fill-opacity:1;" d="M 242.265625 12.382812 C 248.835938 12.421875 251.746094 17.3125 251.746094 23.039062 C 251.746094 28.625 249.234375 33.621094 242.226562 33.660156 C 235.371094 33.589844 232.746094 28.625 232.746094 23.039062 C 232.746094 17.3125 235.699219 12.453125 242.265625 12.382812 Z M 242.265625 30.152344 C 246.464844 30.113281 247.808594 26.71875 247.808594 23.039062 C 247.769531 19.675781 246.351562 15.886719 242.226562 15.886719 C 238.21875 15.925781 236.644531 19.644531 236.644531 23.039062 C 236.652344 26.867188 238.328125 30.152344 242.265625 30.152344 Z M 242.265625 30.152344 "/>
<path style=" stroke:none;fill-rule:nonzero;fill:rgb(6.27451%,18.431373%,21.176471%);fill-opacity:1;" d="M 264.066406 12.382812 C 270.636719 12.421875 273.546875 17.3125 273.546875 23.039062 C 273.546875 28.625 271.035156 33.621094 264.027344 33.660156 C 257.171875 33.589844 254.546875 28.625 254.546875 23.039062 C 254.558594 17.3125 257.507812 12.453125 264.066406 12.382812 Z M 264.066406 30.152344 C 268.261719 30.113281 269.609375 26.71875 269.609375 23.039062 C 269.570312 19.675781 268.152344 15.886719 264.027344 15.886719 C 260.023438 15.925781 258.445312 19.644531 258.445312 23.039062 C 258.457031 26.867188 260.128906 30.152344 264.066406 30.152344 Z M 264.066406 30.152344 "/>
<path style=" stroke:none;fill-rule:nonzero;fill:rgb(6.27451%,18.431373%,21.176471%);fill-opacity:1;" d="M 276.757812 33.292969 L 276.757812 5.410156 L 280.65625 5.410156 L 280.65625 33.292969 Z M 276.757812 33.292969 "/>
<path style=" stroke:none;fill-rule:nonzero;fill:rgb(6.27451%,18.431373%,21.176471%);fill-opacity:1;" d="M 284.78125 29.3125 C 287.074219 29.898438 289.226562 30.191406 290.582031 30.191406 C 292.1875 30.191406 293.832031 29.859375 293.9375 27.925781 C 294.046875 25.882812 291.933594 25.261719 289.523438 24.242188 C 286.789062 23.117188 283.832031 21.582031 283.910156 17.78125 C 283.980469 15.886719 285.117188 12.164062 291.167969 12.34375 C 292.992188 12.382812 295.175781 12.671875 297 13.152344 L 296.308594 16.511719 C 294.15625 16.003906 292.554688 15.785156 290.988281 15.746094 C 289.234375 15.746094 287.886719 16.292969 287.816406 17.9375 C 287.777344 19.324219 288.875 20.054688 291.574219 21.148438 C 294.308594 22.277344 298.171875 23.742188 297.996094 28.050781 C 297.886719 30.785156 296.101562 33.777344 290.589844 33.707031 C 288.835938 33.667969 286.035156 33.449219 283.949219 32.71875 Z M 284.78125 29.3125 "/>
<path style=" stroke:none;fill-rule:nonzero;fill:rgb(94.901961%,47.45098%,13.72549%);fill-opacity:1;" d="M 0.515625 32.839844 C 0.203125 32.988281 0 33.300781 0 33.652344 C 0 34.003906 0.203125 34.320312 0.515625 34.46875 L 17.894531 42.613281 C 18.128906 42.722656 18.378906 42.777344 18.632812 42.777344 L 18.632812 24.605469 C 18.371094 24.605469 18.113281 24.660156 17.871094 24.769531 Z M 0.515625 32.839844 "/>
<path style=" stroke:none;fill-rule:nonzero;fill:rgb(96.078431%,65.490196%,18.823529%);fill-opacity:1;" d="M 18.632812 24.597656 L 18.632812 42.773438 C 18.898438 42.78125 19.171875 42.71875 19.425781 42.605469 L 36.753906 34.492188 C 37.070312 34.34375 37.273438 34.03125 37.273438 33.675781 C 37.273438 33.332031 37.070312 33.011719 36.753906 32.863281 L 19.394531 24.769531 C 19.148438 24.660156 18.890625 24.597656 18.632812 24.597656 Z M 18.632812 24.597656 "/>
<path style=" stroke:none;fill-rule:nonzero;fill:rgb(12.54902%,67.843137%,57.254902%);fill-opacity:1;" d="M 0 9.054688 C 0 9.40625 0.203125 9.71875 0.515625 9.867188 L 17.894531 18.007812 C 18.128906 18.117188 18.378906 18.171875 18.632812 18.179688 C 18.851562 18.179688 19.070312 18.148438 19.28125 18.070312 C 19.445312 17.992188 19.414062 18.007812 19.765625 17.84375 C 21.558594 17.011719 20.367188 17.5625 36.746094 9.890625 C 37.058594 9.742188 37.261719 9.429688 37.261719 9.078125 C 37.261719 8.734375 37.058594 8.410156 36.746094 8.261719 L 19.390625 0.171875 C 18.914062 -0.0585938 18.355469 -0.0585938 17.878906 0.171875 L 0.515625 8.238281 C 0.203125 8.386719 0 8.710938 0 9.054688 Z M 0 9.054688 "/>
<path style=" stroke:none;fill-rule:nonzero;fill:rgb(81.568627%,81.960784%,81.960784%);fill-opacity:1;" d="M 18.632812 19.199219 L 18.632812 24.597656 C 18.371094 24.597656 18.113281 24.652344 17.871094 24.761719 L 0.515625 32.835938 C 0.203125 32.984375 0 33.300781 0 33.652344 L 0 9.054688 C 0 9.40625 0.203125 9.71875 0.515625 9.867188 L 17.894531 18.007812 C 18.128906 18.117188 18.378906 18.171875 18.632812 18.179688 C 18.851562 18.179688 19.070312 18.148438 19.28125 18.070312 L 19.25 18.085938 C 18.710938 18.328125 18.632812 18.578125 18.632812 19.199219 Z M 18.632812 19.199219 "/>
</g>
</svg>
